<?xml version="1.0" encoding="UTF-8"?>
<svg xmlns="http://www.w3.org/2000/svg" viewBox="0 0 64 64" width="64" height="64">
  <defs>
    <linearGradient id="g" x1="0" y1="0" x2="1" y2="1">
      <stop offset="0%" stop-color="#4f46e5"/>
      <stop offset="100%" stop-color="#06b6d4"/>
    </linearGradient>
    <filter id="s" x="-20%" y="-20%" width="140%" height="140%">
      <feDropShadow dx="0" dy="1" stdDeviation="1.2" flood-color="rgba(0,0,0,0.25)"/>
    </filter>
  </defs>

  <!-- Pin background -->
  <g filter="url(#s)">
    <path d="M32 6c9.39 0 17 7.61 17 17 0 12.75-15.04 28.14-16.17 29.31a1.18 1.18 0 0 1-1.66 0C30.04 51.14 15 35.75 15 23 15 13.61 22.61 6 32 6z" fill="url(#g)"/>
  </g>

  <!-- Heart in the center -->
  <path d="M32 24c.9-2.1 3.24-3.5 5.56-3.08 1.58.29 2.98 1.33 3.7 2.77.83 1.68.76 3.74-.18 5.34-.36.61-.82 1.15-1.35 1.62l-6.47 5.64a1.6 1.6 0 0 1-2.12 0l-6.47-5.64a6.6 6.6 0 0 1-1.35-1.62c-.94-1.6-1.01-3.66-.18-5.34.72-1.44 2.12-2.48 3.7-2.77 2.32-.42 4.66.98 5.56 3.08z" fill="#fff"/>

  <!-- Subtle inner ring -->
  <circle cx="32" cy="23" r="16" fill="none" stroke="rgba(255,255,255,0.35)" stroke-width="1.25"/>
</svg>
